<svg xmlns="http://www.w3.org/2000/svg" version="1.1" width="114" height="29" viewBox="0 0 930 235"
     xml:space="preserve">
<desc>Created with Fabric.js 3.5.0</desc>
    <defs>
</defs>
    <rect x="0" y="0" width="100%" height="100%" fill="rgba(255,255,255,0)"/>
    <g transform="matrix(1 0 0 1 465 118.1658)" id="959658">
<g style="">
		<g transform="matrix(8.0436 0 0 8.0436 -0.0017 -0.0004)" id="234454">
<path
    style="stroke: none; stroke-width: 1; stroke-dasharray: none; stroke-linecap: butt; stroke-dashoffset: 0; stroke-linejoin: miter; stroke-miterlimit: 4; is-custom-font: none; font-file-url: none; fill: #6d28d9; fill-rule: evenodd; opacity: 1;"
    vector-effect="non-scaling-stroke" transform=" translate(-56.843, -14.66)"
    d="M 4.773 0.917 v 23.046 h 8.338 v 3.976 H 0.333 V 0.917 h 4.44 z m 24.01 11.465 V 9.95 h 4.208 v 17.99 h -4.207 v -2.433 c -0.567 0.901 -1.37 1.609 -2.413 2.123 c -1.042 0.515 -2.091 0.772 -3.146 0.772 c -1.365 0 -2.613 -0.25 -3.745 -0.752 a 8.758 8.758 0 0 1 -2.915 -2.066 a 9.6 9.6 0 0 1 -1.89 -3.01 a 9.717 9.717 0 0 1 -0.677 -3.63 c 0 -1.26 0.225 -2.464 0.676 -3.61 a 9.56 9.56 0 0 1 1.891 -3.03 a 8.766 8.766 0 0 1 2.915 -2.065 c 1.132 -0.502 2.38 -0.752 3.745 -0.752 c 1.055 0 2.104 0.257 3.146 0.772 c 1.042 0.515 1.846 1.222 2.413 2.123 z m -0.386 8.763 a 6.293 6.293 0 0 0 0.387 -2.2 c 0 -0.773 -0.13 -1.506 -0.387 -2.2 a 5.58 5.58 0 0 0 -1.08 -1.815 a 5.233 5.233 0 0 0 -1.68 -1.236 c -0.656 -0.308 -1.383 -0.463 -2.18 -0.463 c -0.799 0 -1.52 0.155 -2.163 0.463 a 5.29 5.29 0 0 0 -1.66 1.236 a 5.307 5.307 0 0 0 -1.06 1.814 a 6.56 6.56 0 0 0 -0.368 2.2 c 0 0.772 0.122 1.506 0.367 2.2 c 0.244 0.696 0.598 1.3 1.062 1.815 a 5.279 5.279 0 0 0 1.66 1.236 c 0.642 0.309 1.363 0.463 2.161 0.463 s 1.525 -0.154 2.181 -0.463 a 5.222 5.222 0 0 0 1.68 -1.236 a 5.575 5.575 0 0 0 1.08 -1.814 z m 7.914 6.794 V 9.95 h 11.427 v 4.141 h -7.22 v 13.85 h -4.207 z m 26.675 -15.557 V 9.95 h 4.208 v 17.99 h -4.208 v -2.433 c -0.566 0.901 -1.37 1.609 -2.413 2.123 c -1.042 0.515 -2.09 0.772 -3.146 0.772 c -1.364 0 -2.612 -0.25 -3.744 -0.752 a 8.758 8.758 0 0 1 -2.915 -2.066 a 9.6 9.6 0 0 1 -1.891 -3.01 a 9.717 9.717 0 0 1 -0.676 -3.63 c 0 -1.26 0.225 -2.464 0.676 -3.61 a 9.56 9.56 0 0 1 1.89 -3.03 a 8.766 8.766 0 0 1 2.916 -2.065 c 1.132 -0.502 2.38 -0.752 3.744 -0.752 c 1.055 0 2.104 0.257 3.146 0.772 c 1.043 0.515 1.847 1.222 2.413 2.123 z m -0.386 8.763 a 6.293 6.293 0 0 0 0.386 -2.2 c 0 -0.773 -0.13 -1.506 -0.386 -2.2 a 5.58 5.58 0 0 0 -1.08 -1.815 a 5.233 5.233 0 0 0 -1.68 -1.236 c -0.656 -0.308 -1.384 -0.463 -2.181 -0.463 c -0.798 0 -1.519 0.155 -2.162 0.463 a 5.29 5.29 0 0 0 -1.66 1.236 a 5.307 5.307 0 0 0 -1.061 1.814 a 6.56 6.56 0 0 0 -0.367 2.2 c 0 0.772 0.121 1.506 0.367 2.2 c 0.244 0.696 0.598 1.3 1.061 1.815 a 5.279 5.279 0 0 0 1.66 1.236 c 0.643 0.309 1.364 0.463 2.162 0.463 c 0.797 0 1.525 -0.154 2.181 -0.463 a 5.222 5.222 0 0 0 1.68 -1.236 a 5.575 5.575 0 0 0 1.08 -1.814 z M 84.063 9.95 h 4.262 L 81.42 27.94 H 76.13 L 69.224 9.95 h 4.262 l 5.289 13.776 L 84.063 9.95 z m 13.44 -0.463 c 5.729 0 9.636 5.078 8.902 11.021 H 92.446 c 0 1.552 1.567 4.552 5.288 4.552 c 3.2 0 5.345 -2.815 5.346 -2.817 l 2.843 2.2 c -2.542 2.713 -4.623 3.96 -7.882 3.96 c -5.823 0 -9.77 -3.684 -9.77 -9.458 c 0 -5.223 4.079 -9.458 9.231 -9.458 z m -5.046 7.894 h 10.084 c -0.031 -0.346 -0.578 -4.552 -5.072 -4.552 c -4.495 0 -4.98 4.206 -5.012 4.552 z m 16.688 10.558 V 0.917 h 4.208 v 27.022 h -4.208 z"
    stroke-linecap="round"/>
</g>
    <g transform="matrix(2.2266 0 0 2.641 176.2777 -11.6361)" id="978630">
<path
    style="stroke: none; stroke-width: 1; stroke-dasharray: none; stroke-linecap: butt; stroke-dashoffset: 0; stroke-linejoin: miter; stroke-miterlimit: 4; is-custom-font: none; font-file-url: none; fill: #6d28d9; fill-rule: nonzero; opacity: 1;"
    vector-effect="non-scaling-stroke" transform=" translate(-12, -1041.3875)"
    d="m 7 1031.4 c -1.5355 0 -3.0784 0.5 -4.25 1.7 c -2.3431 2.4 -2.2788 6.1 0 8.5 l 9.25 9.8 l 9.25 -9.8 c 2.279 -2.4 2.343 -6.1 0 -8.5 c -2.343 -2.3 -6.157 -2.3 -8.5 0 l -0.75 0.8 l -0.75 -0.8 c -1.172 -1.2 -2.7145 -1.7 -4.25 -1.7 z"
    stroke-linecap="round"/>
</g>
</g>
</g>
</svg>
